<svg width="80" height="141" viewBox="0 0 80 141" fill="none" xmlns="http://www.w3.org/2000/svg">
<g filter="url(#filter0_dd_27_795)">
<mask id="path-1-outside-1_27_795" maskUnits="userSpaceOnUse" x="-0.791739" y="-2.509" width="82.9224" height="140.019" fill="black">
<rect fill="white" x="-0.791739" y="-2.509" width="82.9224" height="140.019"/>
<path fill-rule="evenodd" clip-rule="evenodd" d="M43.0549 7.83607C43.5855 7.60676 44.2011 7.85868 44.1913 8.30112L43.7249 29.0422C43.7114 29.644 44.7615 29.8047 45.1866 29.2659L49.1973 24.1744C49.3124 24.0285 49.4984 23.9198 49.711 23.8727L56.652 22.3356C57.3191 22.1879 57.835 22.6881 57.4963 23.154C55.7893 25.4961 51.9084 30.8201 48.8447 35.0287C61.0259 35.8112 68.5394 41.6929 68.0578 54.3142C67.5321 68.0909 68.9031 84.5723 68.5209 97.636C66.7 98.3247 64.8469 98.9026 63.134 99.2961C61.2984 99.7177 59.6986 99.9118 58.4954 99.8498C57.8487 99.8165 57.2402 100.189 57.1356 100.681C57.0314 101.173 57.4704 101.599 58.1171 101.633C59.7293 101.716 61.654 101.456 63.6299 101.002C65.1902 100.643 66.8311 100.151 68.4497 99.5762C68.3552 101.691 68.2088 103.703 67.99 105.583C66.3907 119.326 55.9828 124.281 50.9784 125.041C37.8325 126.867 30.2771 116.442 28.1427 111L19.0108 82.5297C19.5958 82.5389 20.1859 82.5392 20.7757 82.5285C25.1455 82.4496 29.7518 81.8285 32.599 80.6705C33.1961 80.4274 33.4623 79.8823 33.1936 79.4531C32.9246 79.0241 32.2224 78.873 31.6251 79.1156C29.311 80.0568 25.1735 80.6658 20.938 80.7424C20.0923 80.7577 19.2508 80.7502 18.4307 80.7221L16.1164 73.5049C16.3755 73.5222 16.6384 73.5365 16.903 73.5475C18.9184 73.6315 21.1537 73.5421 23.3686 73.3175C27.7443 72.8735 32.2771 71.8772 34.9647 70.4997C35.5286 70.2107 35.7161 69.6515 35.3829 69.2518C35.0493 68.8522 34.3208 68.7631 33.7568 69.0521C31.5723 70.1718 27.5081 71.1166 23.2666 71.5469C21.1734 71.7592 19.0924 71.8398 17.2517 71.7632C16.6365 71.7376 16.0558 71.6936 15.5166 71.6339L14.9178 69.7637C5.67731 51.2677 14.5012 42.0916 24.6422 38.197C21.9964 34.0455 18.4226 28.0696 15.875 24.0862C15.644 23.7245 15.9885 23.268 16.5412 23.2003L25.4981 22.1064C25.8286 22.0662 26.1391 22.1839 26.2752 22.4009L31.1274 30.1382C31.477 30.6953 32.6381 30.429 32.6408 29.7911L32.7086 12.6785C32.7096 12.4519 32.8825 12.2333 33.1544 12.1156L43.0549 7.83607Z"/>
</mask>
<path fill-rule="evenodd" clip-rule="evenodd" d="M43.0549 7.83607C43.5855 7.60676 44.2011 7.85868 44.1913 8.30112L43.7249 29.0422C43.7114 29.644 44.7615 29.8047 45.1866 29.2659L49.1973 24.1744C49.3124 24.0285 49.4984 23.9198 49.711 23.8727L56.652 22.3356C57.3191 22.1879 57.835 22.6881 57.4963 23.154C55.7893 25.4961 51.9084 30.8201 48.8447 35.0287C61.0259 35.8112 68.5394 41.6929 68.0578 54.3142C67.5321 68.0909 68.9031 84.5723 68.5209 97.636C66.7 98.3247 64.8469 98.9026 63.134 99.2961C61.2984 99.7177 59.6986 99.9118 58.4954 99.8498C57.8487 99.8165 57.2402 100.189 57.1356 100.681C57.0314 101.173 57.4704 101.599 58.1171 101.633C59.7293 101.716 61.654 101.456 63.6299 101.002C65.1902 100.643 66.8311 100.151 68.4497 99.5762C68.3552 101.691 68.2088 103.703 67.99 105.583C66.3907 119.326 55.9828 124.281 50.9784 125.041C37.8325 126.867 30.2771 116.442 28.1427 111L19.0108 82.5297C19.5958 82.5389 20.1859 82.5392 20.7757 82.5285C25.1455 82.4496 29.7518 81.8285 32.599 80.6705C33.1961 80.4274 33.4623 79.8823 33.1936 79.4531C32.9246 79.0241 32.2224 78.873 31.6251 79.1156C29.311 80.0568 25.1735 80.6658 20.938 80.7424C20.0923 80.7577 19.2508 80.7502 18.4307 80.7221L16.1164 73.5049C16.3755 73.5222 16.6384 73.5365 16.903 73.5475C18.9184 73.6315 21.1537 73.5421 23.3686 73.3175C27.7443 72.8735 32.2771 71.8772 34.9647 70.4997C35.5286 70.2107 35.7161 69.6515 35.3829 69.2518C35.0493 68.8522 34.3208 68.7631 33.7568 69.0521C31.5723 70.1718 27.5081 71.1166 23.2666 71.5469C21.1734 71.7592 19.0924 71.8398 17.2517 71.7632C16.6365 71.7376 16.0558 71.6936 15.5166 71.6339L14.9178 69.7637C5.67731 51.2677 14.5012 42.0916 24.6422 38.197C21.9964 34.0455 18.4226 28.0696 15.875 24.0862C15.644 23.7245 15.9885 23.268 16.5412 23.2003L25.4981 22.1064C25.8286 22.0662 26.1391 22.1839 26.2752 22.4009L31.1274 30.1382C31.477 30.6953 32.6381 30.429 32.6408 29.7911L32.7086 12.6785C32.7096 12.4519 32.8825 12.2333 33.1544 12.1156L43.0549 7.83607Z" fill="white"/>
<path d="M43.0549 7.83607L40.5834 1.74174L40.5833 1.74177L43.0549 7.83607ZM44.1913 8.30112L50.796 8.27552L50.7961 8.27257L44.1913 8.30112ZM43.7249 29.0422L37.1202 29.0678L37.1202 29.068L43.7249 29.0422ZM45.1866 29.2659L50.3195 33.3109L50.3226 33.307L45.1866 29.2659ZM49.1973 24.1744L44.0632 20.1309L44.0613 20.1333L49.1973 24.1744ZM49.711 23.8727L48.4543 17.385L48.4536 17.3851L49.711 23.8727ZM56.652 22.3356L55.3961 15.8476L55.3953 15.8478L56.652 22.3356ZM57.4963 23.154L62.7882 26.9894L62.7928 26.9832L57.4963 23.154ZM48.8447 35.0287L43.5505 31.1963L36.4835 40.9042L48.2501 41.66L48.8447 35.0287ZM68.0578 54.3142L61.4563 54.2351L61.4563 54.2351L68.0578 54.3142ZM68.5209 97.636L70.7015 103.848L74.9907 102.226L75.1244 97.6556L68.5209 97.636ZM63.134 99.2961L64.4419 105.772L64.4421 105.772L63.134 99.2961ZM58.4954 99.8498L59.0073 93.2137L59.0071 93.2137L58.4954 99.8498ZM57.1356 100.681L50.6768 99.4565L50.6755 99.4627L57.1356 100.681ZM58.1171 101.633L57.6031 108.269L57.6049 108.269L58.1171 101.633ZM63.6299 101.002L64.9378 107.478L64.938 107.478L63.6299 101.002ZM68.4497 99.5762L75.0494 99.6989L75.4787 90.0909L66.3973 93.317L68.4497 99.5762ZM67.99 105.583L74.5513 106.183L74.5514 106.183L67.99 105.583ZM50.9784 125.041L51.7119 131.623L51.7534 131.617L51.7949 131.61L50.9784 125.041ZM28.1427 111L21.8502 113.19L21.9132 113.387L21.9884 113.579L28.1427 111ZM19.0108 82.5297L19.2888 75.8857L9.83683 75.737L12.7183 84.7204L19.0108 82.5297ZM20.7757 82.5285L20.7194 89.1723L20.7195 89.1723L20.7757 82.5285ZM32.599 80.6705L34.935 86.8216L34.9372 86.8207L32.599 80.6705ZM33.1936 79.4531L38.8108 75.8073L38.8082 75.8031L33.1936 79.4531ZM31.6251 79.1156L29.2924 72.9631L29.2891 72.9644L31.6251 79.1156ZM20.938 80.7424L20.8817 87.3862L20.8818 87.3862L20.938 80.7424ZM18.4307 80.7221L12.138 82.9123L13.5158 87.2089L18.0321 87.3632L18.4307 80.7221ZM16.1164 73.5049L16.7273 66.8746L6.78262 66.2109L9.8238 75.6951L16.1164 73.5049ZM16.903 73.5475L16.4552 80.1867L16.4555 80.1867L16.903 73.5475ZM23.3686 73.3175L23.8588 79.9286L23.8589 79.9286L23.3686 73.3175ZM34.9647 70.4997L37.8393 76.4039L37.8402 76.4035L34.9647 70.4997ZM35.3829 69.2518L40.4919 64.9045L40.4881 64.8999L35.3829 69.2518ZM33.7568 69.0521L30.8825 63.1478L30.8823 63.1479L33.7568 69.0521ZM23.2666 71.5469L23.7568 78.158L23.7569 78.158L23.2666 71.5469ZM17.2517 71.7632L16.8041 78.4024L16.8044 78.4024L17.2517 71.7632ZM15.5166 71.6339L9.22309 73.8213L10.4911 77.7819L14.6228 78.2391L15.5166 71.6339ZM14.9178 69.7637L21.2113 67.5763L21.0591 67.1009L20.8368 66.6558L14.9178 69.7637ZM24.6422 38.197L26.8549 44.397L34.6312 41.4106L30.2316 34.5071L24.6422 38.197ZM15.875 24.0862L10.289 27.7813L10.2912 27.7847L15.875 24.0862ZM16.5412 23.2003L15.9165 16.6042L15.9143 16.6045L16.5412 23.2003ZM25.4981 22.1064L24.8762 15.5099L24.8734 15.5103L25.4981 22.1064ZM26.2752 22.4009L31.8894 18.7505L31.8891 18.7499L26.2752 22.4009ZM31.1274 30.1382L25.5131 33.7887L25.5144 33.7907L31.1274 30.1382ZM32.6408 29.7911L39.2471 29.6439L39.2471 29.6417L32.6408 29.7911ZM32.7086 12.6785L26.1024 12.8266L26.1023 12.8279L32.7086 12.6785ZM33.1544 12.1156L30.6828 6.02131L30.6807 6.02225L33.1544 12.1156ZM43.0549 7.83607L45.5265 13.9304C44.145 14.5275 42.5949 14.5527 41.1983 13.9812C39.8739 13.4393 37.5124 11.6947 37.5866 8.32967L44.1913 8.30112L50.7961 8.27257C50.88 4.46505 48.2156 2.37337 46.4532 1.65216C44.6185 0.901412 42.4954 0.915287 40.5834 1.74174L43.0549 7.83607ZM44.1913 8.30112L37.5867 8.32672L37.1202 29.0678L43.7249 29.0422L50.3296 29.0166L50.796 8.27552L44.1913 8.30112ZM43.7249 29.0422L37.1202 29.068C37.0045 34.2241 41.4499 35.8947 43.1293 36.1516C45.0845 36.4508 48.1779 36.0256 50.3195 33.3109L45.1866 29.2659L40.0536 25.2209C41.7702 23.045 44.126 22.8088 45.4533 23.0119C46.223 23.1297 47.3097 23.4693 48.324 24.3666C49.453 25.3653 50.3749 26.997 50.3296 29.0163L43.7249 29.0422ZM45.1866 29.2659L50.3226 33.307L54.3333 28.2156L49.1973 24.1744L44.0613 20.1333L40.0505 25.2247L45.1866 29.2659ZM49.1973 24.1744L54.3315 28.218C53.2843 29.5461 51.9675 30.139 50.9684 30.3603L49.711 23.8727L48.4536 17.3851C47.0292 17.7007 45.3405 18.5109 44.0632 20.1309L49.1973 24.1744ZM49.711 23.8727L50.9678 30.3605L57.9088 28.8233L56.652 22.3356L55.3953 15.8478L48.4543 17.385L49.711 23.8727ZM56.652 22.3356L57.9079 28.8235C56.4172 29.1534 54.401 28.9075 52.8021 27.3577C51.9757 26.5566 51.1959 25.3053 51.0286 23.6557C50.8546 21.9395 51.4083 20.4134 52.1999 19.3247L57.4963 23.154L62.7928 26.9832C63.7537 25.6616 64.3699 23.8983 64.1736 21.962C63.984 20.0921 63.097 18.6377 62.1005 17.6718C60.1617 15.7923 57.554 15.3701 55.3961 15.8476L56.652 22.3356ZM57.4963 23.154L52.2045 19.3185C50.498 21.6598 46.6157 26.9858 43.5505 31.1963L48.8447 35.0287L54.1389 38.861C57.2011 34.6544 61.0805 29.3325 62.7882 26.9894L57.4963 23.154ZM48.8447 35.0287L48.2501 41.66C53.4967 41.9971 56.7532 43.3832 58.6172 45.1385C60.3091 46.7316 61.642 49.3682 61.4563 54.2351L68.0578 54.3142L74.6593 54.3934C74.9552 46.6389 72.7722 40.024 67.7824 35.3253C62.9648 30.7888 56.3739 28.8428 49.4393 28.3973L48.8447 35.0287ZM68.0578 54.3142L61.4563 54.2351C61.1832 61.3906 61.4041 69.1825 61.6323 76.6229C61.8638 84.1706 62.1013 91.3295 61.9174 97.6164L68.5209 97.636L75.1244 97.6556C75.3227 90.8788 75.0658 83.2651 74.8387 75.8621C74.6084 68.3516 74.4066 61.0146 74.6593 54.3934L68.0578 54.3142ZM68.5209 97.636L66.3403 91.4239C64.752 92.0246 63.193 92.5059 61.8258 92.8199L63.134 99.2961L64.4421 105.772C66.5008 105.299 68.648 104.625 70.7015 103.848L68.5209 97.636ZM63.134 99.2961L61.8261 92.8199C60.2823 93.1745 59.3533 93.2315 59.0073 93.2137L58.4954 99.8498L57.9835 106.486C60.044 106.592 62.3145 106.261 64.4419 105.772L63.134 99.2961ZM58.4954 99.8498L59.0071 93.2137C57.3732 93.1295 55.719 93.5418 54.2915 94.4144C52.9143 95.2562 51.2226 96.8894 50.6768 99.4565L57.1356 100.681L63.5943 101.905C63.1531 103.98 61.818 105.181 60.9329 105.722C59.9974 106.294 58.9709 106.537 57.9836 106.486L58.4954 99.8498ZM57.1356 100.681L50.6755 99.4627C50.0879 102.239 51.1501 104.672 52.6928 106.169C54.1549 107.588 55.9813 108.185 57.6031 108.269L58.1171 101.633L58.6311 94.9968C59.6062 95.0473 60.8898 95.4141 61.9967 96.4884C63.1843 97.641 64.0791 99.6145 63.5957 101.899L57.1356 100.681ZM58.1171 101.633L57.6049 108.269C60.0744 108.396 62.67 107.999 64.9378 107.478L63.6299 101.002L62.3221 94.5256C60.6381 94.9124 59.3842 95.0356 58.6293 94.9967L58.1171 101.633ZM63.6299 101.002L64.938 107.478C66.7908 107.052 68.6824 106.482 70.5021 105.835L68.4497 99.5762L66.3973 93.317C64.9798 93.8206 63.5897 94.2344 62.3219 94.5256L63.6299 101.002ZM68.4497 99.5762L61.85 99.4535C61.7606 101.455 61.6244 103.302 61.4287 104.984L67.99 105.583L74.5514 106.183C74.7933 104.104 74.9499 101.927 75.0494 99.6989L68.4497 99.5762ZM67.99 105.583L61.4287 104.984C60.2821 114.836 53.0714 118.029 50.1619 118.471L50.9784 125.041L51.7949 131.61C58.8941 130.532 72.4994 123.815 74.5513 106.183L67.99 105.583ZM50.9784 125.041L50.245 118.459C45.7625 119.082 42.3218 117.673 39.6419 115.515C36.8174 113.241 35.0099 110.239 34.2969 108.421L28.1427 111L21.9884 113.579C23.4099 117.203 26.4472 122.134 31.2206 125.976C36.1385 129.936 43.0485 132.826 51.7119 131.623L50.9784 125.041ZM28.1427 111L34.4351 108.809L25.3032 80.339L19.0108 82.5297L12.7183 84.7204L21.8502 113.19L28.1427 111ZM19.0108 82.5297L18.7327 89.1737C19.3845 89.184 20.0489 89.1844 20.7194 89.1723L20.7757 82.5285L20.832 75.8848C20.323 75.894 19.8071 75.8938 19.2888 75.8857L19.0108 82.5297ZM20.7757 82.5285L20.7195 89.1723C25.3587 89.0885 30.9396 88.4467 34.935 86.8216L32.599 80.6705L30.2629 74.5193C28.564 75.2103 24.9324 75.8107 20.8319 75.8848L20.7757 82.5285ZM32.599 80.6705L34.9372 86.8207C36.4927 86.1875 38.1546 84.9417 39.1356 82.9331C40.1897 80.7749 40.2316 78.0772 38.8108 75.8073L33.1936 79.4531L27.5764 83.0989C26.4243 81.2582 26.4674 79.0477 27.3063 77.33C28.0721 75.7621 29.3024 74.9104 30.2607 74.5202L32.599 80.6705ZM33.1936 79.4531L38.8082 75.8031C37.5202 73.7489 35.5577 72.8516 34.0772 72.533C32.537 72.2016 30.8597 72.3266 29.2924 72.9631L31.6251 79.1156L33.9578 85.2681C32.9878 85.662 31.9602 85.7412 30.9878 85.532C30.0749 85.3356 28.598 84.7283 27.579 83.1031L33.1936 79.4531ZM31.6251 79.1156L29.2891 72.9644C28.1236 73.4384 24.9611 74.0269 20.9941 74.0987L20.938 80.7424L20.8818 87.3862C25.3859 87.3047 30.4984 86.6751 33.9611 85.2667L31.6251 79.1156ZM20.938 80.7424L20.9942 74.0987C20.2653 74.1118 19.5379 74.1053 18.8293 74.0811L18.4307 80.7221L18.0321 87.3632C18.9637 87.395 19.9193 87.4036 20.8817 87.3862L20.938 80.7424ZM18.4307 80.7221L24.7233 78.532L22.4091 71.3148L16.1164 73.5049L9.8238 75.6951L12.138 82.9123L18.4307 80.7221ZM16.1164 73.5049L15.5056 80.1353C15.8189 80.1562 16.1361 80.1734 16.4552 80.1867L16.903 73.5475L17.3507 66.9084C17.1406 66.8996 16.9322 66.8883 16.7273 66.8746L16.1164 73.5049ZM16.903 73.5475L16.4555 80.1867C18.8401 80.286 21.3945 80.1786 23.8588 79.9286L23.3686 73.3175L22.8785 66.7063C20.9129 66.9057 18.9966 66.9769 17.3505 66.9084L16.903 73.5475ZM23.3686 73.3175L23.8589 79.9286C28.4828 79.4595 34.0162 78.3634 37.8393 76.4039L34.9647 70.4997L32.0902 64.5956C30.5381 65.3911 27.0058 66.2876 22.8783 66.7063L23.3686 73.3175ZM34.9647 70.4997L37.8402 76.4035C39.3887 75.6095 41.0128 74.1328 41.7648 71.8892C42.5741 69.4747 42.1089 66.8446 40.4919 64.9045L35.3829 69.2518L30.274 73.5991C28.9901 72.0587 28.5977 69.908 29.2556 67.9453C29.8561 66.1535 31.1046 65.1009 32.0892 64.596L34.9647 70.4997ZM35.3829 69.2518L40.4881 64.8999C39.0254 63.1483 37.0935 62.4774 35.6266 62.2974C34.1071 62.111 32.4343 62.3526 30.8825 63.1478L33.7568 69.0521L36.6311 74.9564C35.6434 75.4626 34.6168 75.6042 33.6859 75.49C32.8076 75.3823 31.4068 74.9558 30.2778 73.6037L35.3829 69.2518ZM33.7568 69.0521L30.8823 63.1479C29.834 63.6852 26.7711 64.5305 22.7764 64.9358L23.2666 71.5469L23.7569 78.158C28.245 77.7027 33.3106 76.6583 36.6314 74.9563L33.7568 69.0521ZM23.2666 71.5469L22.7765 64.9358C20.933 65.1227 19.1709 65.1853 17.699 65.1241L17.2517 71.7632L16.8044 78.4024C19.0139 78.4944 21.4139 78.3957 23.7568 78.158L23.2666 71.5469ZM17.2517 71.7632L17.6994 65.1241C17.223 65.1043 16.7915 65.0709 16.4104 65.0287L15.5166 71.6339L14.6228 78.2391C15.3202 78.3163 16.0501 78.371 16.8041 78.4024L17.2517 71.7632ZM15.5166 71.6339L21.8101 69.4465L21.2113 67.5763L14.9178 69.7637L8.62432 71.9512L9.22309 73.8213L15.5166 71.6339ZM14.9178 69.7637L20.8368 66.6558C16.7506 58.4768 17.3164 53.7512 18.5061 51.1379C19.7858 48.3268 22.6617 46.0073 26.8549 44.397L24.6422 38.197L22.4295 31.9971C16.4817 34.2813 9.8751 38.4972 6.51779 45.8718C3.07043 53.4442 3.84455 62.5546 8.99886 72.8716L14.9178 69.7637ZM24.6422 38.197L30.2316 34.5071C28.9431 32.4854 27.4188 30.0037 25.8672 27.4782C24.3336 24.9821 22.7703 22.4382 21.4588 20.3876L15.875 24.0862L10.2912 27.7847C11.5273 29.7175 13.0247 32.1533 14.5764 34.6789C16.11 37.1751 17.6955 39.7571 19.0529 41.8869L24.6422 38.197ZM15.875 24.0862L21.461 20.391C23.0632 22.8997 22.4257 25.75 21.1422 27.4547C19.9915 28.9831 18.4319 29.6414 17.1682 29.7962L16.5412 23.2003L15.9143 16.6045C14.0979 16.827 12.0896 17.7473 10.6862 19.6114C9.15004 21.6516 8.45587 24.9111 10.289 27.7813L15.875 24.0862ZM16.5412 23.2003L17.166 29.7964L26.1228 28.7025L25.4981 22.1064L24.8734 15.5103L15.9165 16.6042L16.5412 23.2003ZM25.4981 22.1064L26.12 28.7028C25.2941 28.8034 24.3875 28.7242 23.4873 28.3829C22.6087 28.0498 21.481 27.3588 20.6613 26.052L26.2752 22.4009L31.8891 18.7499C30.0359 15.7956 26.8602 15.2685 24.8762 15.5099L25.4981 22.1064ZM26.2752 22.4009L20.6609 26.0514L25.5131 33.7887L31.1274 30.1382L36.7416 26.4877L31.8894 18.7505L26.2752 22.4009ZM31.1274 30.1382L25.5144 33.7907C27.7493 37.3516 31.6126 37.2811 33.3201 36.8894C34.8547 36.5374 39.2254 34.7029 39.2471 29.6439L32.6408 29.7911L26.0346 29.9382C26.0434 27.8745 27.0454 26.2854 28.0538 25.3537C28.9824 24.4959 29.9684 24.1058 30.7083 23.9361C31.7471 23.6978 34.8551 23.482 36.7404 26.4857L31.1274 30.1382ZM32.6408 29.7911L39.2471 29.6417L39.315 12.5291L32.7086 12.6785L26.1023 12.8279L26.0345 29.9405L32.6408 29.7911ZM32.7086 12.6785L39.3149 12.5304C39.301 15.8703 36.9326 17.6446 35.6282 18.209L33.1544 12.1156L30.6807 6.02225C28.8324 6.82195 26.1181 9.03338 26.1024 12.8266L32.7086 12.6785ZM33.1544 12.1156L35.6261 18.2099L45.5266 13.9304L43.0549 7.83607L40.5833 1.74177L30.6828 6.02131L33.1544 12.1156Z" fill="white" mask="url(#path-1-outside-1_27_795)"/>
</g>
<path d="M35.4687 35.846C55.2383 32.6763 68.6976 37.5523 68.0579 54.3138C67.5322 68.0905 68.9034 84.5716 68.5213 97.6354C66.7002 98.3242 64.8475 98.9019 63.1344 99.2955C61.2985 99.7172 59.699 99.9119 58.4957 99.8498C57.8487 99.8164 57.2396 100.188 57.1353 100.681C57.031 101.173 57.4704 101.599 58.1173 101.633C59.7297 101.716 61.6542 101.455 63.6304 101.001C65.1908 100.643 66.8306 100.151 68.4494 99.5758C68.3549 101.691 68.2089 103.703 67.9901 105.583C66.3908 119.326 55.9832 124.281 50.979 125.041C37.8325 126.868 30.2773 116.441 28.1431 110.999L19.0108 82.5291C19.596 82.5383 20.1857 82.5385 20.7756 82.5278C25.1456 82.4489 29.7518 81.8284 32.5991 80.6704C33.1966 80.4273 33.463 79.8821 33.194 79.4528C32.925 79.0235 32.2224 78.8725 31.6248 79.1155C29.3106 80.0568 25.1736 80.6653 20.9378 80.7418C20.092 80.7571 19.2514 80.7497 18.4312 80.7217L16.1169 73.5049C16.3762 73.5222 16.6387 73.5365 16.9036 73.5475C18.9191 73.6315 21.1532 73.5418 23.3683 73.3171C27.7444 72.8732 32.2775 71.8768 34.9652 70.4991C35.5293 70.21 35.7162 69.6514 35.3826 69.2516C35.0489 68.852 34.321 68.7621 33.757 69.0512C31.5725 70.171 27.5085 71.1162 23.2669 71.5465C21.1733 71.7588 19.0923 71.8399 17.2514 71.7633C16.6361 71.7376 16.0564 71.6928 15.5171 71.6331L14.9175 69.7637C2.3006 44.5096 23.3612 36.6293 35.4687 35.846Z" fill="#C1C1C1"/>
<path d="M42.6936 6.21576C43.2982 6.02341 43.9376 6.05222 44.4829 6.27554C45.0884 6.52363 45.8668 7.17712 45.8419 8.29382L45.4368 26.3071L47.9132 23.1645L48.0715 22.9829C48.4558 22.5835 48.9411 22.3515 49.3966 22.2506L56.3386 20.7143L56.4869 20.6854C57.2356 20.5623 58.0402 20.7473 58.6146 21.3048C58.9277 21.6086 59.1892 22.0493 59.2442 22.5998C59.3008 23.1667 59.1226 23.6963 58.8188 24.1132C55.8365 28.205 46.3126 41.2741 45.9392 41.809C45.6172 42.2705 45.1524 42.514 44.9496 42.6153C44.6751 42.7525 44.3649 42.87 44.0596 42.9709C43.443 43.1747 42.6727 43.3676 41.8556 43.5439C40.2116 43.8989 38.2234 44.2177 36.5496 44.4221C34.931 44.6198 33.0919 44.8451 31.4951 44.9234C30.6958 44.9626 29.9103 44.9682 29.2145 44.9049C28.5624 44.8456 27.7965 44.7121 27.1692 44.3473C26.8815 44.18 26.6523 43.9479 26.5155 43.8017C26.3522 43.6271 26.1814 43.421 26.0105 43.2015C25.6673 42.7606 25.2622 42.187 24.8176 41.5288C23.9256 40.2084 22.8182 38.4611 21.6322 36.554C19.2422 32.7113 16.5351 28.2256 14.479 25.0106C13.9338 24.1578 14.128 23.1896 14.607 22.553C15.0528 21.9606 15.7233 21.6319 16.385 21.551L25.341 20.4572C26.038 20.3721 26.9849 20.5591 27.5668 21.3262L27.6782 21.4876L30.9998 26.783L31.056 12.7157L31.0659 12.5099C31.1612 11.5072 31.9133 10.8609 32.5365 10.5916L42.437 6.31201L42.6936 6.21576Z" fill="#DFDFDF" stroke="white" stroke-width="3.31281"/>
<defs>
<filter id="filter0_dd_27_795" x="3.48091e-05" y="0.000222325" width="79.8957" height="140.732" filterUnits="userSpaceOnUse" color-interpolation-filters="sRGB">
<feFlood flood-opacity="0" result="BackgroundImageFix"/>
<feColorMatrix in="SourceAlpha" type="matrix" values="0 0 0 0 0 0 0 0 0 0 0 0 0 0 0 0 0 0 127 0" result="hardAlpha"/>
<feOffset dy="4.41708"/>
<feGaussianBlur stdDeviation="2.20854"/>
<feComposite in2="hardAlpha" operator="out"/>
<feColorMatrix type="matrix" values="0 0 0 0 0 0 0 0 0 0 0 0 0 0 0 0 0 0 0.15 0"/>
<feBlend mode="normal" in2="BackgroundImageFix" result="effect1_dropShadow_27_795"/>
<feColorMatrix in="SourceAlpha" type="matrix" values="0 0 0 0 0 0 0 0 0 0 0 0 0 0 0 0 0 0 127 0" result="hardAlpha"/>
<feOffset dx="1.10427" dy="1.10427"/>
<feGaussianBlur stdDeviation="1.10427"/>
<feComposite in2="hardAlpha" operator="out"/>
<feColorMatrix type="matrix" values="0 0 0 0 0 0 0 0 0 0 0 0 0 0 0 0 0 0 0.1 0"/>
<feBlend mode="normal" in2="effect1_dropShadow_27_795" result="effect2_dropShadow_27_795"/>
<feBlend mode="normal" in="SourceGraphic" in2="effect2_dropShadow_27_795" result="shape"/>
</filter>
</defs>
</svg>
