<svg width="56" height="56" viewBox="0 0 56 56" fill="none" xmlns="http://www.w3.org/2000/svg">
<rect width="56" height="56" rx="28" fill="#131313"/>
<path d="M16 16H16.3632C17.0046 16 17.3258 16 17.5874 16.114C17.818 16.2145 18.0152 16.3762 18.1574 16.5814C18.3184 16.8137 18.3765 17.1239 18.4926 17.743L21.4147 33.3334L35.5222 33.3333C36.1356 33.3333 36.4433 33.3333 36.6974 33.2266C36.9219 33.1322 37.1155 32.9795 37.2593 32.7853C37.4218 32.5656 37.4907 32.2716 37.6284 31.6841L37.6294 31.6799L39.7536 22.6133L39.754 22.6114C39.9628 21.7202 40.0675 21.2735 39.9526 20.9232C39.8517 20.6158 39.6396 20.3551 39.3581 20.1892C39.0371 20 38.5733 20 37.6432 20H19.3841M36.3048 40C35.5572 40 34.9512 39.403 34.9512 38.6667C34.9512 37.9303 35.5572 37.3333 36.3048 37.3333C37.0524 37.3333 37.6585 37.9303 37.6585 38.6667C37.6585 39.403 37.0524 40 36.3048 40ZM22.7683 40C22.0207 40 21.4146 39.403 21.4146 38.6667C21.4146 37.9303 22.0207 37.3333 22.7683 37.3333C23.5159 37.3333 24.1219 37.9303 24.1219 38.6667C24.1219 39.403 23.5159 40 22.7683 40Z" stroke="white" stroke-width="2" stroke-linecap="round" stroke-linejoin="round"/>
</svg>
