<svg width="90" height="141" viewBox="0 0 90 141" fill="none" xmlns="http://www.w3.org/2000/svg">
<g filter="url(#filter0_dd_27_837)">
<mask id="path-1-outside-1_27_837" maskUnits="userSpaceOnUse" x="-0.791739" y="-2.509" width="82.9224" height="140.019" fill="black">
<rect fill="white" x="-0.791739" y="-2.509" width="82.9224" height="140.019"/>
<path fill-rule="evenodd" clip-rule="evenodd" d="M43.0558 7.8359C43.5862 7.60677 44.201 7.85869 44.1912 8.30107L43.7258 29.042C43.7122 29.6439 44.7624 29.8046 45.1874 29.2657L49.1982 24.1743C49.3132 24.0284 49.4993 23.9197 49.7118 23.8725L56.6529 22.3354C57.32 22.1879 57.8355 22.688 57.4962 23.1539C55.7892 25.4961 51.9092 30.82 48.8455 35.0285C61.0267 35.811 68.5402 41.6927 68.0586 54.314C67.5329 68.0907 68.9039 84.5721 68.5218 97.6358C66.7007 98.3246 64.8478 98.9024 63.1348 99.2959C61.2992 99.7176 59.6995 99.9116 58.4962 99.8497C57.8493 99.8163 57.2399 100.189 57.1354 100.681C57.0313 101.173 57.4712 101.599 58.1179 101.633C59.7302 101.716 61.6549 101.456 63.6308 101.002C65.191 100.643 66.831 100.151 68.4496 99.5762C68.3551 101.691 68.2097 103.703 67.9909 105.583C66.3916 119.326 55.9836 124.281 50.9793 125.04C37.8333 126.867 30.278 116.442 28.1435 111L19.0116 82.5295C19.5964 82.5387 20.1861 82.5391 20.7756 82.5285C25.1455 82.4495 29.7526 81.8283 32.5998 80.6703C33.1967 80.4271 33.4631 79.8821 33.1944 79.4529C32.9254 79.0237 32.2225 78.8726 31.625 79.1155C29.3108 80.0567 25.1734 80.6658 20.9378 80.7424C20.0923 80.7576 19.2515 80.75 18.4315 80.722L16.1173 73.5048C16.3765 73.5221 16.6391 73.5363 16.9038 73.5474C18.9192 73.6313 21.1536 73.542 23.3685 73.3174C27.7444 72.8735 32.2779 71.8772 34.9656 70.4996C35.5294 70.2105 35.7161 69.6515 35.3828 69.2518C35.0491 68.8523 34.3216 68.763 33.7577 69.0519C31.5732 70.1716 27.509 71.1164 23.2675 71.5467C21.1741 71.7591 19.0924 71.8398 17.2516 71.7632C16.6365 71.7376 16.0566 71.6934 15.5174 71.6337L14.9177 69.7637C5.67745 51.268 14.5012 42.0916 24.6421 38.197C21.9963 34.0454 18.4234 28.0694 15.8758 24.086C15.6447 23.7244 15.9885 23.2681 16.5411 23.2003L25.498 22.1063C25.8285 22.0661 26.1389 22.1839 26.275 22.4009L31.1282 30.138C31.4779 30.6951 32.638 30.4289 32.6407 29.791L32.7085 12.6785C32.7095 12.4517 32.8832 12.2331 33.1553 12.1154L43.0558 7.8359Z"/>
</mask>
<path fill-rule="evenodd" clip-rule="evenodd" d="M43.0558 7.8359C43.5862 7.60677 44.201 7.85869 44.1912 8.30107L43.7258 29.042C43.7122 29.6439 44.7624 29.8046 45.1874 29.2657L49.1982 24.1743C49.3132 24.0284 49.4993 23.9197 49.7118 23.8725L56.6529 22.3354C57.32 22.1879 57.8355 22.688 57.4962 23.1539C55.7892 25.4961 51.9092 30.82 48.8455 35.0285C61.0267 35.811 68.5402 41.6927 68.0586 54.314C67.5329 68.0907 68.9039 84.5721 68.5218 97.6358C66.7007 98.3246 64.8478 98.9024 63.1348 99.2959C61.2992 99.7176 59.6995 99.9116 58.4962 99.8497C57.8493 99.8163 57.2399 100.189 57.1354 100.681C57.0313 101.173 57.4712 101.599 58.1179 101.633C59.7302 101.716 61.6549 101.456 63.6308 101.002C65.191 100.643 66.831 100.151 68.4496 99.5762C68.3551 101.691 68.2097 103.703 67.9909 105.583C66.3916 119.326 55.9836 124.281 50.9793 125.04C37.8333 126.867 30.278 116.442 28.1435 111L19.0116 82.5295C19.5964 82.5387 20.1861 82.5391 20.7756 82.5285C25.1455 82.4495 29.7526 81.8283 32.5998 80.6703C33.1967 80.4271 33.4631 79.8821 33.1944 79.4529C32.9254 79.0237 32.2225 78.8726 31.625 79.1155C29.3108 80.0567 25.1734 80.6658 20.9378 80.7424C20.0923 80.7576 19.2515 80.75 18.4315 80.722L16.1173 73.5048C16.3765 73.5221 16.6391 73.5363 16.9038 73.5474C18.9192 73.6313 21.1536 73.542 23.3685 73.3174C27.7444 72.8735 32.2779 71.8772 34.9656 70.4996C35.5294 70.2105 35.7161 69.6515 35.3828 69.2518C35.0491 68.8523 34.3216 68.763 33.7577 69.0519C31.5732 70.1716 27.509 71.1164 23.2675 71.5467C21.1741 71.7591 19.0924 71.8398 17.2516 71.7632C16.6365 71.7376 16.0566 71.6934 15.5174 71.6337L14.9177 69.7637C5.67745 51.268 14.5012 42.0916 24.6421 38.197C21.9963 34.0454 18.4234 28.0694 15.8758 24.086C15.6447 23.7244 15.9885 23.2681 16.5411 23.2003L25.498 22.1063C25.8285 22.0661 26.1389 22.1839 26.275 22.4009L31.1282 30.138C31.4779 30.6951 32.638 30.4289 32.6407 29.791L32.7085 12.6785C32.7095 12.4517 32.8832 12.2331 33.1553 12.1154L43.0558 7.8359Z" fill="white"/>
<path d="M43.0558 7.8359L40.5858 1.7409L40.5842 1.7416L43.0558 7.8359ZM44.1912 8.30107L50.7959 8.27516L50.7959 8.27252L44.1912 8.30107ZM43.7258 29.042L50.3304 29.0161L50.3304 29.0161L43.7258 29.042ZM45.1874 29.2657L50.3209 33.31L50.3234 33.3069L45.1874 29.2657ZM49.1982 24.1743L44.0652 20.1292L44.0622 20.1331L49.1982 24.1743ZM49.7118 23.8725L48.4551 17.3848L48.4544 17.385L49.7118 23.8725ZM56.6529 22.3354L55.3982 15.8472L55.3961 15.8477L56.6529 22.3354ZM57.4962 23.1539L62.7881 26.9894L62.7899 26.987L57.4962 23.1539ZM48.8455 35.0285L43.5514 31.1961L36.4844 40.904L48.2509 41.6599L48.8455 35.0285ZM68.0586 54.314L61.4571 54.2349L61.4571 54.2349L68.0586 54.314ZM68.5218 97.6358L70.7024 103.848L74.9916 102.226L75.1253 97.6555L68.5218 97.6358ZM63.1348 99.2959L64.4428 105.772L64.443 105.772L63.1348 99.2959ZM58.4962 99.8497L57.9838 106.486L57.9845 106.486L58.4962 99.8497ZM57.1354 100.681L50.6762 99.4586L50.6754 99.4627L57.1354 100.681ZM58.1179 101.633L57.6042 108.269L57.6059 108.269L58.1179 101.633ZM63.6308 101.002L64.9387 107.478L64.9388 107.478L63.6308 101.002ZM68.4496 99.5762L75.0493 99.6989L75.4785 90.0909L66.3972 93.317L68.4496 99.5762ZM67.9909 105.583L74.5522 106.183L74.5522 106.183L67.9909 105.583ZM50.9793 125.04L51.7128 131.622L51.7543 131.617L51.7957 131.61L50.9793 125.04ZM28.1435 111L21.8511 113.19L21.9141 113.387L21.9893 113.579L28.1435 111ZM19.0116 82.5295L19.2896 75.8855L9.83769 75.7369L12.7192 84.7203L19.0116 82.5295ZM20.7756 82.5285L20.7192 89.1722L20.7193 89.1722L20.7756 82.5285ZM32.5998 80.6703L34.9358 86.8215L34.9392 86.8201L32.5998 80.6703ZM33.1944 79.4529L38.8116 75.8071L38.8098 75.8042L33.1944 79.4529ZM31.625 79.1155L29.2901 72.9639L29.289 72.9643L31.625 79.1155ZM20.9378 80.7424L20.8815 87.3861L20.8817 87.3861L20.9378 80.7424ZM18.4315 80.722L12.1389 82.9122L13.5166 87.2087L18.0329 87.363L18.4315 80.722ZM16.1173 73.5048L16.7281 66.8745L6.78346 66.2107L9.82464 75.695L16.1173 73.5048ZM16.9038 73.5474L16.4561 80.1865L16.4563 80.1865L16.9038 73.5474ZM23.3685 73.3174L23.8586 79.9285L23.8588 79.9285L23.3685 73.3174ZM34.9656 70.4996L37.8403 76.4037L37.8411 76.4033L34.9656 70.4996ZM35.3828 69.2518L40.491 64.9036L40.4869 64.8987L35.3828 69.2518ZM33.7577 69.0519L30.8836 63.1475L30.883 63.1478L33.7577 69.0519ZM23.2675 71.5467L23.7576 78.1579L23.7578 78.1579L23.2675 71.5467ZM17.2516 71.7632L16.8039 78.4023L16.8042 78.4024L17.2516 71.7632ZM15.5174 71.6337L9.2249 73.8242L10.4942 77.7819L14.6236 78.239L15.5174 71.6337ZM14.9177 69.7637L21.2102 67.5732L21.0583 67.0994L20.8367 66.6558L14.9177 69.7637ZM24.6421 38.197L26.8549 44.3969L34.631 41.4105L30.2314 34.5071L24.6421 38.197ZM15.8758 24.086L10.291 27.783L10.292 27.7846L15.8758 24.086ZM16.5411 23.2003L15.9164 16.6042L15.912 16.6047L16.5411 23.2003ZM25.498 22.1063L24.875 15.51L24.8733 15.5102L25.498 22.1063ZM26.275 22.4009L31.889 18.7499L31.8889 18.7498L26.275 22.4009ZM31.1282 30.138L25.5143 33.789L25.5155 33.791L31.1282 30.138ZM32.6407 29.791L39.247 29.6439L39.247 29.6416L32.6407 29.791ZM32.7085 12.6785L26.1022 12.8265L26.1022 12.8279L32.7085 12.6785ZM33.1553 12.1154L30.6837 6.02114L30.6833 6.0213L33.1553 12.1154ZM43.0558 7.8359L45.5258 13.9309C44.1451 14.5273 42.5944 14.5531 41.1961 13.9801C39.8683 13.4361 37.5124 11.69 37.5865 8.32961L44.1912 8.30107L50.7959 8.27252C50.8798 4.46977 48.2214 2.37648 46.4561 1.65321C44.6202 0.901003 42.4969 0.915412 40.5858 1.7409L43.0558 7.8359ZM44.1912 8.30107L37.5865 8.32698L37.1211 29.0679L43.7258 29.042L50.3304 29.0161L50.7959 8.27516L44.1912 8.30107ZM43.7258 29.042L37.1211 29.0679C37.0053 34.2236 41.4504 35.8944 43.13 36.1515C45.0854 36.4508 48.1793 36.0254 50.3209 33.31L45.1874 29.2657L40.0539 25.2214C41.7705 23.0449 44.1269 22.8086 45.4543 23.0118C46.2241 23.1296 47.3107 23.4693 48.325 24.3666C49.4539 25.3652 50.3758 26.9969 50.3304 29.0161L43.7258 29.042ZM45.1874 29.2657L50.3234 33.3069L54.3342 28.2154L49.1982 24.1743L44.0622 20.1331L40.0514 25.2246L45.1874 29.2657ZM49.1982 24.1743L54.3311 28.2193C53.285 29.5453 51.9697 30.1385 50.9693 30.3601L49.7118 23.8725L48.4544 17.385C47.0288 17.7008 45.3414 18.5115 44.0652 20.1292L49.1982 24.1743ZM49.7118 23.8725L50.9686 30.3603L57.9096 28.8231L56.6529 22.3354L55.3961 15.8477L48.4551 17.3848L49.7118 23.8725ZM56.6529 22.3354L57.9076 28.8236C56.4182 29.1529 54.4002 28.9079 52.8001 27.355C51.9729 26.5523 51.1937 25.2991 51.0282 23.6483C50.856 21.9316 51.4116 20.4071 52.2026 19.3209L57.4962 23.1539L62.7899 26.987C63.7505 25.6677 64.3688 23.906 64.1746 21.9692C63.987 20.0982 63.1008 18.6418 62.1038 17.6742C60.1639 15.7917 57.5547 15.3704 55.3982 15.8472L56.6529 22.3354ZM57.4962 23.1539L52.2043 19.3184C50.4974 21.6605 46.6163 26.9859 43.5514 31.1961L48.8455 35.0285L54.1397 38.8608C57.2021 34.6541 61.081 29.3316 62.7881 26.9894L57.4962 23.1539ZM48.8455 35.0285L48.2509 41.6599C53.4975 41.9969 56.754 43.383 58.6181 45.1383C60.3099 46.7315 61.6428 49.3681 61.4571 54.2349L68.0586 54.314L74.6601 54.3932C74.956 46.6387 72.773 40.0238 67.7832 35.3251C62.9656 30.7886 56.3748 28.8426 49.4401 28.3971L48.8455 35.0285ZM68.0586 54.314L61.4571 54.2349C61.1841 61.3904 61.405 69.1824 61.6331 76.6227C61.8646 84.1705 62.1022 91.3293 61.9183 97.6162L68.5218 97.6358L75.1253 97.6555C75.3235 90.8786 75.0666 83.2649 74.8396 75.8619C74.6092 68.3515 74.4074 61.0144 74.6601 54.3932L68.0586 54.314ZM68.5218 97.6358L66.3411 91.4237C64.7528 92.0244 63.1939 92.5057 61.8267 92.8198L63.1348 99.2959L64.443 105.772C66.5017 105.299 68.6487 104.625 70.7024 103.848L68.5218 97.6358ZM63.1348 99.2959L61.8268 92.8197C60.2832 93.1743 59.3542 93.2313 59.008 93.2135L58.4962 99.8497L57.9845 106.486C60.0449 106.592 62.3152 106.261 64.4428 105.772L63.1348 99.2959ZM58.4962 99.8497L59.0087 93.2135C57.3749 93.1292 55.7211 93.5412 54.2939 94.4128C52.9176 95.2534 51.2221 96.8872 50.6762 99.4586L57.1354 100.681L63.5947 101.903C63.1533 103.982 61.8147 105.184 60.931 105.723C59.9963 106.294 58.9706 106.537 57.9838 106.486L58.4962 99.8497ZM57.1354 100.681L50.6754 99.4627C50.0867 102.244 51.1543 104.678 52.6966 106.172C54.1583 107.589 55.9833 108.185 57.6042 108.269L58.1179 101.633L58.6317 94.9966C59.6058 95.0471 60.8875 95.4131 61.9936 96.485C63.1803 97.635 64.0801 99.6092 63.5955 101.899L57.1354 100.681ZM58.1179 101.633L57.6059 108.269C60.0753 108.396 62.6707 107.999 64.9387 107.478L63.6308 101.002L62.3228 94.5254C60.6391 94.9122 59.3851 95.0354 58.63 94.9965L58.1179 101.633ZM63.6308 101.002L64.9388 107.478C66.792 107.052 68.6828 106.482 70.502 105.835L68.4496 99.5762L66.3972 93.317C64.9792 93.8207 63.5901 94.2343 62.3227 94.5255L63.6308 101.002ZM68.4496 99.5762L61.8499 99.4534C61.7604 101.458 61.625 103.304 61.4296 104.984L67.9909 105.583L74.5522 106.183C74.7943 104.102 74.9499 101.924 75.0493 99.6989L68.4496 99.5762ZM67.9909 105.583L61.4296 104.983C60.2829 114.836 53.0722 118.029 50.1628 118.471L50.9793 125.04L51.7957 131.61C58.895 130.532 72.5002 123.815 74.5522 106.183L67.9909 105.583ZM50.9793 125.04L50.2457 118.459C45.7632 119.081 42.3226 117.673 39.6428 115.515C36.8183 113.241 35.0108 110.239 34.2977 108.421L28.1435 111L21.9893 113.579C23.4107 117.203 26.4481 122.134 31.2214 125.976C36.1393 129.936 43.0493 132.826 51.7128 131.622L50.9793 125.04ZM28.1435 111L34.436 108.809L25.3041 80.3388L19.0116 82.5295L12.7192 84.7203L21.8511 113.19L28.1435 111ZM19.0116 82.5295L18.7336 89.1736C19.3842 89.1838 20.0482 89.1844 20.7192 89.1722L20.7756 82.5285L20.8319 75.8847C20.3239 75.8939 19.8086 75.8937 19.2896 75.8855L19.0116 82.5295ZM20.7756 82.5285L20.7193 89.1722C25.3586 89.0884 30.9403 88.4465 34.9358 86.8215L32.5998 80.6703L30.2638 74.5191C28.5648 75.2102 24.9323 75.8106 20.8318 75.8847L20.7756 82.5285ZM32.5998 80.6703L34.9392 86.8201C36.4943 86.1866 38.1554 84.941 39.1362 82.9333C40.19 80.776 40.233 78.078 38.8116 75.8071L33.1944 79.4529L27.5773 83.0987C26.4245 81.257 26.4687 79.0461 27.3073 77.3294C28.0728 75.7624 29.3022 74.9108 30.2604 74.5205L32.5998 80.6703ZM33.1944 79.4529L38.8098 75.8042C37.521 73.7476 35.5563 72.8505 34.0762 72.5324C32.536 72.2013 30.8582 72.3265 29.2901 72.9639L31.625 79.1155L33.9598 85.2672C32.9892 85.6617 31.9617 85.7409 30.9896 85.532C30.0776 85.3359 28.5989 84.7291 27.5791 83.1017L33.1944 79.4529ZM31.625 79.1155L29.289 72.9643C28.1234 73.4384 24.961 74.0269 20.994 74.0986L20.9378 80.7424L20.8817 87.3861C25.3859 87.3047 30.4982 86.675 33.9609 85.2667L31.625 79.1155ZM20.9378 80.7424L20.9942 74.0986C20.2659 74.1118 19.5393 74.1052 18.8301 74.081L18.4315 80.722L18.0329 87.363C18.9638 87.3948 19.9187 87.4035 20.8815 87.3861L20.9378 80.7424ZM18.4315 80.722L24.7241 78.5318L22.4099 71.3146L16.1173 73.5048L9.82464 75.695L12.1389 82.9122L18.4315 80.722ZM16.1173 73.5048L15.5064 80.1351C15.8198 80.156 16.1368 80.1732 16.4561 80.1865L16.9038 73.5474L17.3515 66.9082C17.1414 66.8995 16.9331 66.8881 16.7281 66.8745L16.1173 73.5048ZM16.9038 73.5474L16.4563 80.1865C18.8408 80.2858 21.3942 80.1785 23.8586 79.9285L23.3685 73.3174L22.8784 66.7063C20.913 66.9056 18.9975 66.9768 17.3513 66.9082L16.9038 73.5474ZM23.3685 73.3174L23.8588 79.9285C28.4827 79.4595 34.0169 78.3634 37.8403 76.4037L34.9656 70.4996L32.0909 64.5955C30.5389 65.391 27.0062 66.2875 22.8783 66.7063L23.3685 73.3174ZM34.9656 70.4996L37.8411 76.4033C39.3908 75.6087 41.0163 74.1301 41.7672 71.8834C42.5748 69.4666 42.1051 66.8395 40.491 64.9036L35.3828 69.2518L30.2746 73.5999C28.9937 72.0637 28.5974 69.916 29.2541 67.9509C29.854 66.1559 31.1042 65.1013 32.0901 64.5959L34.9656 70.4996ZM35.3828 69.2518L40.4869 64.8987C39.026 63.1499 37.0967 62.4781 35.6284 62.2976C34.1079 62.1107 32.435 62.3525 30.8836 63.1475L33.7577 69.0519L36.6318 74.9564C35.6442 75.4624 34.617 75.6044 33.6847 75.4898C32.8045 75.3816 31.4059 74.9542 30.2786 73.6048L35.3828 69.2518ZM33.7577 69.0519L30.883 63.1478C29.8349 63.685 26.7722 64.5303 22.7772 64.9356L23.2675 71.5467L23.7578 78.1579C28.2458 77.7025 33.3115 76.6582 36.6324 74.956L33.7577 69.0519ZM23.2675 71.5467L22.7773 64.9356C20.9334 65.1226 19.1707 65.1853 17.699 65.124L17.2516 71.7632L16.8042 78.4024C19.0141 78.4944 21.4148 78.3955 23.7576 78.1579L23.2675 71.5467ZM17.2516 71.7632L17.6993 65.124C17.2244 65.1043 16.7936 65.0708 16.4112 65.0285L15.5174 71.6337L14.6236 78.239C15.3196 78.316 16.0486 78.3709 16.8039 78.4023L17.2516 71.7632ZM15.5174 71.6337L21.81 69.4433L21.2102 67.5732L14.9177 69.7637L8.62516 71.9541L9.2249 73.8242L15.5174 71.6337ZM14.9177 69.7637L20.8367 66.6558C16.7506 58.477 17.3164 53.7513 18.5061 51.138C19.7859 48.3268 22.6618 46.0072 26.8549 44.3969L24.6421 38.197L22.4293 31.9971C16.4815 34.2814 9.87508 38.4974 6.51783 45.8719C3.07052 53.4443 3.84452 62.5547 8.99872 72.8715L14.9177 69.7637ZM24.6421 38.197L30.2314 34.5071C28.9432 32.4856 27.4192 30.0041 25.8678 27.4785C24.3345 24.9825 22.7713 22.4383 21.4597 20.3874L15.8758 24.086L10.292 27.7846C11.528 29.7171 13.025 32.1526 14.5765 34.6784C16.1099 37.1745 17.6952 39.7568 19.0528 41.8869L24.6421 38.197ZM15.8758 24.086L21.4607 20.389C23.0611 22.8931 22.43 25.7425 21.1454 27.451C19.9942 28.9821 18.4332 29.6407 17.1702 29.7958L16.5411 23.2003L15.912 16.6047C14.0964 16.8277 12.0872 17.7484 10.6838 19.615C9.14695 21.659 8.45944 24.9173 10.291 27.783L15.8758 24.086ZM16.5411 23.2003L17.1658 29.7964L26.1227 28.7024L25.498 22.1063L24.8733 15.5102L15.9164 16.6042L16.5411 23.2003ZM25.498 22.1063L26.121 28.7026C25.2948 28.8033 24.3877 28.7242 23.4869 28.3827C22.6075 28.0493 21.4804 27.358 20.6612 26.052L26.275 22.4009L31.8889 18.7498C30.0362 15.7961 26.8609 15.268 24.875 15.51L25.498 22.1063ZM26.275 22.4009L20.6611 26.0519L25.5143 33.789L31.1282 30.138L36.7421 26.487L31.889 18.7499L26.275 22.4009ZM31.1282 30.138L25.5155 33.791C27.7495 37.3497 31.6106 37.2816 33.3209 36.8892C34.8591 36.5363 39.2253 34.6998 39.247 29.6439L32.6407 29.791L26.0344 29.9382C26.0433 27.8764 27.0435 26.2877 28.0522 25.3552C28.9809 24.4966 29.9675 24.106 30.7083 23.9361C31.7504 23.6969 34.8566 23.4834 36.7409 26.4851L31.1282 30.138ZM32.6407 29.791L39.247 29.6416L39.3148 12.529L32.7085 12.6785L26.1022 12.8279L26.0344 29.9405L32.6407 29.791ZM32.7085 12.6785L39.3148 12.5304C39.3009 15.8819 36.9192 17.651 35.6273 18.2096L33.1553 12.1154L30.6833 6.0213C28.8471 6.81514 26.1181 9.0216 26.1022 12.8265L32.7085 12.6785ZM33.1553 12.1154L35.6269 18.2097L45.5274 13.9302L43.0558 7.8359L40.5842 1.7416L30.6837 6.02114L33.1553 12.1154Z" fill="white" mask="url(#path-1-outside-1_27_837)"/>
</g>
<path d="M35.4687 35.8451C55.2383 32.6753 68.6976 37.5513 68.0579 54.3128C67.5322 68.0895 68.9034 84.5706 68.5213 97.6345C66.7002 98.3232 64.8475 98.9009 63.1344 99.2945C61.2985 99.7162 59.699 99.9109 58.4957 99.8488C57.8487 99.8155 57.2396 100.188 57.1353 100.68C57.031 101.172 57.4704 101.598 58.1173 101.632C59.7297 101.715 61.6542 101.454 63.6304 101C65.1908 100.642 66.8306 100.15 68.4494 99.5749C68.3549 101.69 68.2089 103.702 67.9901 105.582C66.3908 119.325 55.9832 124.28 50.979 125.04C37.8325 126.867 30.2773 116.44 28.1431 110.998L19.0108 82.5281C19.596 82.5373 20.1857 82.5375 20.7756 82.5268C25.1456 82.4479 29.7518 81.8275 32.5991 80.6694C33.1966 80.4263 33.463 79.8811 33.194 79.4518C32.925 79.0225 32.2224 78.8716 31.6248 79.1146C29.3106 80.0558 25.1736 80.6643 20.9378 80.7409C20.092 80.7561 19.2514 80.7487 18.4312 80.7207L16.1169 73.5039C16.3762 73.5212 16.6387 73.5355 16.9036 73.5466C18.9191 73.6305 21.1532 73.5408 23.3683 73.3161C27.7444 72.8722 32.2775 71.8759 34.9652 70.4982C35.5293 70.209 35.7162 69.6504 35.3826 69.2506C35.0489 68.851 34.321 68.7612 33.757 69.0503C31.5725 70.17 27.5085 71.1152 23.2669 71.5455C21.1733 71.7578 19.0923 71.839 17.2514 71.7623C16.6361 71.7367 16.0564 71.6919 15.5171 71.6322L14.9175 69.7627C2.3006 44.5086 23.3612 36.6283 35.4687 35.8451Z" fill="#C1C1C1"/>
<mask id="mask0_27_837" style="mask-type:alpha" maskUnits="userSpaceOnUse" x="11" y="34" width="58" height="92">
<path d="M35.4687 35.8451C55.2383 32.6753 68.6976 37.5513 68.0579 54.3128C67.5322 68.0895 68.9034 84.5706 68.5213 97.6345C66.7002 98.3232 64.8475 98.9009 63.1344 99.2945C61.2985 99.7162 59.699 99.9109 58.4957 99.8488C57.8487 99.8155 57.2396 100.188 57.1353 100.68C57.031 101.172 57.4704 101.598 58.1173 101.632C59.7297 101.715 61.6542 101.454 63.6304 101C65.1908 100.642 66.8306 100.15 68.4494 99.5749C68.3549 101.69 68.2089 103.702 67.9901 105.582C66.3908 119.325 55.9832 124.28 50.979 125.04C37.8325 126.867 30.2773 116.44 28.1431 110.998L19.0108 82.5281C19.596 82.5373 20.1857 82.5375 20.7756 82.5268C25.1456 82.4479 29.7518 81.8275 32.5991 80.6694C33.1966 80.4263 33.463 79.8811 33.194 79.4518C32.925 79.0225 32.2224 78.8716 31.6248 79.1146C29.3106 80.0558 25.1736 80.6643 20.9378 80.7409C20.092 80.7561 19.2514 80.7487 18.4312 80.7207L16.1169 73.5039C16.3762 73.5212 16.6387 73.5355 16.9036 73.5466C18.9191 73.6305 21.1532 73.5408 23.3683 73.3161C27.7444 72.8722 32.2775 71.8759 34.9652 70.4982C35.5293 70.209 35.7162 69.6504 35.3826 69.2506C35.0489 68.851 34.321 68.7612 33.757 69.0503C31.5725 70.17 27.5085 71.1152 23.2669 71.5455C21.1733 71.7578 19.0923 71.839 17.2514 71.7623C16.6361 71.7367 16.0564 71.6919 15.5171 71.6322L14.9175 69.7627C2.3006 44.5086 23.3612 36.6283 35.4687 35.8451Z" fill="#986E3E"/>
</mask>
<g mask="url(#mask0_27_837)">
<g filter="url(#filter1_f_27_837)">
<path d="M6.47178 122.031L-2.11979 37.2763C-2.15925 36.887 -1.9898 36.506 -1.67435 36.2745L6.79624 30.0602C6.92696 29.9643 7.07718 29.8984 7.23625 29.8671L25.9011 26.1946C25.9713 26.1808 26.0427 26.1738 26.1143 26.1738L51.3956 26.1738C51.5141 26.1738 51.6318 26.1929 51.7443 26.2303L82.4358 36.4461C82.8111 36.571 83.0897 36.8802 83.1673 37.2681C85.1598 47.2375 88.6589 67.4468 87.6317 73.3078C86.5828 79.2931 65.7789 75.8017 55.508 73.3078L28.3209 66.0915C27.7565 65.9417 27.173 66.2572 26.9894 66.8115L8.61867 122.267C8.24413 123.397 6.59191 123.216 6.47178 122.031Z" fill="#131313"/>
</g>
</g>
<path d="M42.6937 6.21576C43.2983 6.02341 43.9378 6.05222 44.4831 6.27554C45.0885 6.52363 45.8669 7.17712 45.8421 8.29382L45.437 26.3071L47.9133 23.1645L48.0717 22.9829C48.456 22.5835 48.9413 22.3515 49.3967 22.2506L56.3388 20.7143L56.487 20.6854C57.2357 20.5623 58.0403 20.7473 58.6147 21.3048C58.9278 21.6086 59.1893 22.0493 59.2443 22.5998C59.3009 23.1667 59.1227 23.6963 58.8189 24.1132C55.8367 28.205 46.3128 41.274 45.9393 41.809C45.6173 42.2705 45.1525 42.514 44.9498 42.6153C44.6752 42.7525 44.365 42.87 44.0597 42.9709C43.4431 43.1747 42.6728 43.3676 41.8558 43.5439C40.2117 43.8989 38.2235 44.2177 36.5497 44.4221C34.9312 44.6198 33.0921 44.8451 31.4953 44.9234C30.6959 44.9626 29.9104 44.9682 29.2147 44.9049C28.5625 44.8456 27.7966 44.7121 27.1693 44.3473C26.8816 44.18 26.6524 43.9479 26.5156 43.8017C26.3523 43.6271 26.1815 43.421 26.0106 43.2015C25.6674 42.7606 25.2623 42.187 24.8177 41.5288C23.9257 40.2084 22.8184 38.4611 21.6323 36.554C19.2423 32.7113 16.5353 28.2256 14.4791 25.0106C13.9339 24.1578 14.1281 23.1896 14.6072 22.553C15.053 21.9606 15.7234 21.6319 16.3852 21.551L25.3411 20.4572C26.0381 20.3721 26.9851 20.5591 27.5669 21.3262L27.6783 21.4876L31 26.783L31.0561 12.7157L31.066 12.5099C31.1613 11.5072 31.9134 10.8609 32.5366 10.5916L42.4371 6.31201L42.6937 6.21576Z" fill="#DFDFDF" stroke="white" stroke-width="3.31281"/>
<path d="M80.3928 26.5224C81.8119 26.7724 83.1848 27.1291 84.3367 27.6333C85.4798 28.1337 86.465 28.8056 87.0292 29.7195C88.2986 31.776 88.8033 33.5511 88.7492 35.0971C88.6949 36.6502 88.0792 37.9097 87.2257 38.9313C86.7096 39.549 85.8834 39.8892 85.0004 40.0104C84.1061 40.133 83.0857 40.042 82.0912 39.7304C80.1 39.1064 78.1322 37.5645 77.5119 34.9306C77.1074 33.2128 76.151 31.5968 75.0672 30.2406C73.9853 28.8869 72.7998 27.8221 71.9807 27.2071C71.5016 26.8474 71.7021 26.0353 72.3538 26.0119L73.1836 25.9915C75.2185 25.9646 77.9085 26.0847 80.3928 26.5224Z" fill="#131313" stroke="#131313" stroke-width="1.10427"/>
<path d="M74.1453 8.06543C75.3006 8.00394 76.4421 8.03104 77.4402 8.20801C78.428 8.38318 79.3413 8.71665 79.9724 9.32129C81.3626 10.6531 82.1076 11.9216 82.3601 13.1309C82.6144 14.3489 82.3549 15.4405 81.863 16.3828C81.5521 16.9784 80.9362 17.3946 80.2556 17.6465C79.5622 17.9031 78.7308 18.0171 77.8806 17.959C76.1817 17.8427 74.3074 17.0228 73.3044 15.1016C72.6888 13.922 71.6738 12.9011 70.5945 12.084C69.5183 11.2693 68.409 10.6805 67.6462 10.3545C67.0966 10.1194 67.0914 9.26685 67.738 9.09863L68.3904 8.93652C69.9935 8.55572 72.1222 8.17313 74.1453 8.06543Z" fill="#131313" stroke="#131313" stroke-width="1.10427"/>
<defs>
<filter id="filter0_dd_27_837" x="3.48091e-05" y="0.000222325" width="79.8956" height="140.732" filterUnits="userSpaceOnUse" color-interpolation-filters="sRGB">
<feFlood flood-opacity="0" result="BackgroundImageFix"/>
<feColorMatrix in="SourceAlpha" type="matrix" values="0 0 0 0 0 0 0 0 0 0 0 0 0 0 0 0 0 0 127 0" result="hardAlpha"/>
<feOffset dy="4.41708"/>
<feGaussianBlur stdDeviation="2.20854"/>
<feComposite in2="hardAlpha" operator="out"/>
<feColorMatrix type="matrix" values="0 0 0 0 0 0 0 0 0 0 0 0 0 0 0 0 0 0 0.15 0"/>
<feBlend mode="normal" in2="BackgroundImageFix" result="effect1_dropShadow_27_837"/>
<feColorMatrix in="SourceAlpha" type="matrix" values="0 0 0 0 0 0 0 0 0 0 0 0 0 0 0 0 0 0 127 0" result="hardAlpha"/>
<feOffset dx="1.10427" dy="1.10427"/>
<feGaussianBlur stdDeviation="1.10427"/>
<feComposite in2="hardAlpha" operator="out"/>
<feColorMatrix type="matrix" values="0 0 0 0 0 0 0 0 0 0 0 0 0 0 0 0 0 0 0.1 0"/>
<feBlend mode="normal" in2="effect1_dropShadow_27_837" result="effect2_dropShadow_27_837"/>
<feBlend mode="normal" in="SourceGraphic" in2="effect2_dropShadow_27_837" result="shape"/>
</filter>
<filter id="filter1_f_27_837" x="-18.6895" y="9.60978" width="123.07" height="129.979" filterUnits="userSpaceOnUse" color-interpolation-filters="sRGB">
<feFlood flood-opacity="0" result="BackgroundImageFix"/>
<feBlend mode="normal" in="SourceGraphic" in2="BackgroundImageFix" result="shape"/>
<feGaussianBlur stdDeviation="8.28202" result="effect1_foregroundBlur_27_837"/>
</filter>
</defs>
</svg>
