<svg width="393" height="27" viewBox="0 0 393 27" fill="none" xmlns="http://www.w3.org/2000/svg">
<path d="M-29 3C-23.3851 3 -13.7984 7.115 -6.54037 16.2418C1.88199 26.8326 24.3416 24.1843 32.764 13.5908C41.1863 2.99741 58.0311 0.349059 66.4534 10.9425C74.0564 20.5054 94.5279 29.4845 108.565 13.5926C122.602 -2.2993 142.255 5.64368 150.677 16.2394C156.292 23.3013 171.452 30.5418 187.174 13.5923C202.896 -3.35717 218.056 4.76445 223.671 10.9439C229.286 18.889 245.569 30.5418 265.783 13.5923C285.996 -3.35717 300.408 6.53002 305.087 13.5923C311.638 20.6546 328.67 30.5418 344.391 13.5923C360.113 -3.35717 377.145 6.53002 383.696 13.5923C389.311 20.6546 405.032 30.5418 423 13.5923" stroke="#E2E2E2" stroke-width="6" stroke-dasharray="8 10"/>
</svg>
