<svg width="44" height="44" viewBox="0 0 44 44" fill="none" xmlns="http://www.w3.org/2000/svg">
<rect width="44" height="44" rx="22" fill="#F6F6F6"/>
<path d="M25.0002 27V28C25.0002 29.6569 23.657 31 22.0001 31C20.3433 31 19.0001 29.6569 19.0001 28V27M25.0002 27H19.0001M25.0002 27H28.5908C28.9733 27 29.1655 27 29.3204 26.9478C29.6162 26.848 29.8477 26.6156 29.9475 26.3198C30 26.1643 30 25.9715 30 25.5859C30 25.4172 29.9998 25.3329 29.9866 25.2524C29.9617 25.1004 29.9027 24.9563 29.8128 24.8312C29.7654 24.7651 29.705 24.7048 29.5861 24.5858L29.1966 24.1963C29.0709 24.0706 29.0003 23.9001 29.0003 23.7224V20C29.0003 16.134 25.8662 13 22.0001 13C18.1341 13 15 16.134 15 20V23.7224C15 23.9002 14.9293 24.0706 14.8036 24.1963L14.4141 24.5858C14.2948 24.7051 14.235 24.765 14.1875 24.8312C14.0977 24.9564 14.0381 25.1004 14.0132 25.2524C14 25.3329 14 25.4172 14 25.586C14 25.9715 14 26.1642 14.0525 26.3197C14.1523 26.6156 14.3848 26.848 14.6807 26.9478C14.8356 27 15.027 27 15.4096 27H19.0001" stroke="#131313" stroke-width="1.5" stroke-linecap="round" stroke-linejoin="round"/>
<circle cx="27" cy="15" r="2" fill="#FF522B"/>
</svg>
